<?xml version="1.0" encoding="UTF-8"?><svg id="Layer_1" xmlns="http://www.w3.org/2000/svg" viewBox="0 0 1920 802.73"><defs><style>.cls-1,.cls-2{fill:#fff;}.cls-2{fill-rule:evenodd;}</style></defs><rect class="cls-1" x=".02" y="628.59" width="121.26" height="28.87"/><path class="cls-2" d="M247.89,635.67h48.21c0-12.83-7.01-27.17-24.41-27.17-12.81,0-23.8,10.69-23.8,27.17h0Zm83.6,53.39l2.44,27.45c-15.55,8.25-35.38,14.05-54.31,14.05-42.1,0-71.69-29.61-71.69-76.28,0-37.22,25.02-73.23,68.95-73.23s57.97,32.05,57.97,60.1c0,5.49-.61,10.99-1.52,15.88h-86.05c0,34.77,19.84,45.76,41.5,45.76,12.51,0,32.96-7.31,42.72-13.73Z"/><path class="cls-2" d="M439.19,663.73c-19.52,2.76-39.36,9.47-39.36,25.02,0,9.77,5.19,14.05,11.61,14.05,11.28,0,20.44-6.41,27.75-13.43v-25.63h0Zm39.98,17.39c0,18.02,12.51,22.57,17.38,24.41l-24.11,25.02c-19.52-5.18-25.92-17.07-28.06-21.34-9.47,9.15-25.93,21.34-43.63,21.34-28.37,0-39.66-16.78-39.66-34.77,0-40.28,55.84-47.59,77.8-51.25,.3-7.95,.3-18.64,.3-20.76,0-7.33-3.66-16.8-17.08-16.8-11.91,0-20.14,8.56-20.14,13.76,0,3.04,1.52,6.1,2.14,7.6l-36.3,8.25c-1.22-3.66-2.74-9.75-2.74-14.34,0-13.73,9.75-23.18,18.6-28.37,9.45-5.49,27.15-12.81,48.21-12.81,40.57,0,47.3,25.63,47.3,42.72v57.35Z"/><path class="cls-2" d="M517.3,690.58c10.97,7.63,25.32,12.21,36.92,12.21,10.97,0,18.91-4.58,18.91-14.05,0-11.61-12.21-15.86-24.1-21.66-19.52-9.77-37.53-18.62-37.53-42.42,0-27.15,25.62-43.62,57.66-43.62,17.39,0,31.43,5.49,37.53,8.25v31.11s-14.65-11.9-35.09-11.9c-14.95,0-21.06,6.09-21.06,14.02,0,8.55,5.5,12.21,27.15,21.67,18.92,8.23,34.79,18.61,34.79,42.4,0,28.09-28.07,43.94-54.61,43.94-21.97,0-36.92-5.18-45.47-10.37l4.89-29.59Z"/><path class="cls-2" d="M776.01,585.32c0,.6-46.68,132.1-52.17,147.36-6.41,18-27.15,58.28-68.65,58.28-8.23,0-15.27-1.22-17.7-1.84-.3-2.14,.32-22.88,.32-29.27,2.74,.9,7.32,3.04,15.56,3.04,16.77,0,28.97-12.82,35.69-27.15l-64.38-150.41h42.41s34.17,88.47,34.79,90c1.52,4.57,5.18,16.18,5.18,16.18l4.58-16.18,25.63-90h38.74Z"/><polygon class="cls-2" points="900.19 726.27 859.91 726.27 859.91 496.54 900.19 489.21 900.19 726.27"/><path class="cls-2" d="M980.13,726.27h-40.28v-137.9l40.28-7.32v145.22h0Zm-20.74-166.28c-12.81,0-23.2-10.37-23.2-23.19s10.38-23.18,23.2-23.18,22.88,10.39,22.88,23.18-10.37,23.19-22.88,23.19Z"/><path class="cls-2" d="M1125.35,491.36l.62,33.86s-11.59-7.93-36-7.93c-18.3,0-25.34,12.51-25.34,30.81v37.23h48.51l-3.96,24.11h-44.55v116.83h-39.66v-116.83h-24.1l4.27-24.11h19.83v-33.27c0-54.6,40.88-65.89,67.43-65.89,15.56,0,26.85,2.75,32.95,5.19Z"/><path class="cls-2" d="M1161.05,635.67h48.21c0-12.83-7.01-27.17-24.41-27.17-12.81,0-23.8,10.69-23.8,27.17h0Zm83.6,53.39l2.44,27.45c-15.55,8.25-35.39,14.05-54.31,14.05-42.1,0-71.69-29.61-71.69-76.28,0-37.22,25.02-73.23,68.95-73.23s57.97,32.05,57.97,60.1c0,5.49-.6,10.99-1.52,15.88h-86.05c0,34.77,19.84,45.76,41.5,45.76,12.51,0,32.96-7.31,42.72-13.73Z"/><rect class="cls-1" x="322.98" width="60.81" height="60.81"/><rect class="cls-1" x="437" width="60.83" height="60.81"/><polygon class="cls-2" points="562.19 83.61 562.19 144.44 653.42 144.44 653.42 387.68 714.23 387.68 714.23 144.44 805.44 144.44 805.44 83.61 562.19 83.61"/><polygon class="cls-2" points="835.79 83.61 835.79 144.44 927.02 144.44 927.02 387.68 987.83 387.68 987.83 144.44 1079.05 144.44 1079.05 83.61 835.79 83.61"/><polygon class="cls-2" points="228.06 387.68 228.06 326.87 60.83 326.87 60.83 83.62 0 83.62 .01 387.68 228.06 387.68"/><rect class="cls-1" x="1520.34" y="83.61" width="60.82" height="304.08"/><polygon class="cls-2" points="1489.86 387.68 1489.86 326.87 1322.63 326.87 1322.63 83.62 1261.81 83.62 1261.81 387.68 1489.86 387.68"/><path class="cls-2" d="M363.94,281.27l46.42-112.18,46.42,112.17h-92.84Zm76.87-197.63h-60.81l-126.03,304.05h65.94l18.88-45.61h143.16l18.89,45.61h65.91L440.8,83.63Z"/><polygon class="cls-2" points="1794.06 387.67 1733.24 387.67 1607.22 83.62 1673.15 83.62 1763.61 302.22 1854.07 83.62 1920 83.62 1794.06 387.67"/></svg>